<svg xmlns="http://www.w3.org/2000/svg" viewBox="0 0 180 140">
  <path fill="#4ec3ff" d="M16 111c14-10 26-14 38-14s22 4 32 9c8 4 15 8 24 8 12 0 24-5 40-18v18c-15 12-28 17-42 17s-24-4-33-9c-9-4-16-8-26-8-11 0-24 5-41 18z"/>
  <path fill="#7cd884" d="M106 74c14-9 23-17 33-33 4 15 4 24 0 37-12-1-21-2-33-4Z"/>
  <path fill="#36566a" d="M53 93c8-10 18-15 31-15 10 0 19 4 28 12l9 8c5 4 7 9 4 12-3 3-12 3-19 1-5 9-13 15-22 15-11 0-21-6-27-17-10 2-20 1-23-2-3-3 0-9 8-14z"/>
  <path fill="#618c57" d="M43 113c7-7 14-10 20-9 5 1 8 5 9 11H43Zm74-17c8 0 15 4 21 12h-20c-3-6-3-10-1-12Z"/>
  <circle cx="82" cy="96" r="2" fill="#fff"/>
</svg>
