<svg xmlns="http://www.w3.org/2000/svg" viewBox="0 0 180 140">
  <path fill="#406e5e" d="M16 126c24-17 40-26 56-26 15 0 26 8 37 15 9 6 16 10 25 10 10 0 20-4 30-13v16c-11 9-23 14-35 14-14 0-25-7-35-14-10-7-19-12-31-12-13 0-29 9-47 26z"/>
  <path fill="#d3a06e" d="M18 90c18-14 34-22 50-22 15 0 27 7 40 14 11 6 20 10 31 10 10 0 18-3 25-9v17c-8 7-17 10-28 10-15 0-26-7-38-14-11-6-21-11-33-11-13 0-27 7-47 23Z"/>
  <path fill="#f1c48d" d="M34 84h14v-8h7v8h13V72h8v12h22V73h8v11h16V72h8v12h14v10H34Z"/>
  <path fill="#b97b56" d="M48 84h7v27h-7zm50 0h8v20h-8zm32 0h8v18h-8z"/>
</svg>
