<svg xmlns="http://www.w3.org/2000/svg" viewBox="0 0 160 140">
  <path fill="#f9cd69" d="M110 20c10 0 18 8 18 18s-8 18-18 18-18-8-18-18 8-18 18-18Z"/>
  <path fill="#335e69" d="M16 126 58 70 73 88 96 38 144 126Z"/>
  <path fill="#4d807b" d="M28 126 61 84 74 98 95 55 124 126Z"/>
  <path fill="#73a48e" d="M40 126 66 92 78 104 93 72 111 126Z"/>
  <path fill="#eef6ff" d="M89 49 96 38 103 49 98 55Z"/>
  <path fill="#487354" d="M49 112c8-6 12-15 11-27 9 10 11 18 10 27H49Zm31 0c8-7 12-16 11-28 8 10 10 19 10 28H80Z"/>
</svg>
