<svg xmlns="http://www.w3.org/2000/svg" viewBox="0 0 165 140">
  <path fill="#f9cd69" d="M119 18c9 0 16 7 16 16s-7 16-16 16-16-7-16-16 7-16 16-16Z"/>
  <path fill="#2c5964" d="M18 126 54 66 66 82 87 35 130 126Z"/>
  <path fill="#4a7c72" d="M30 126 58 82 67 96 86 56 111 126Z"/>
  <path fill="#6ea78e" d="M44 126 63 92 70 103 83 77 99 126Z"/>
  <path fill="#eef6ff" d="M80 45 87 35 94 46 88 52Z"/>
  <path fill="#41694f" d="M28 108c9-7 15-15 18-24 8 12 8 20 6 24H28Zm69 0c8-7 14-15 16-24 7 12 7 20 5 24H97Z"/>
</svg>
