<svg xmlns="http://www.w3.org/2000/svg" viewBox="0 0 160 140">
  <path fill="#f7d789" d="M24 118h112l-8 10H32z"/>
  <path fill="#f2b981" d="M34 101h92l-7 14H41z"/>
  <path fill="#ffe6be" d="M50 61h60v40H50z"/>
  <path fill="#f2c17b" d="M45 61h70l-8-10H53z"/>
  <path fill="#fff5df" d="M80 26c12 0 22 11 22 24v11H58V50c0-13 10-24 22-24Z"/>
  <path fill="#f1b474" d="M28 63h12V42c0-6 5-11 11-11v11c-2 0-3 1-3 3v56H28zm92 0h12V42c0-6-5-11-11-11v11c2 0 3 1 3 3v56h-20V48h16z"/>
  <path fill="#ffd571" d="M76 14h8v18h-8zM32 64h96v6H32z"/>
</svg>
